<svg width="24" height="24" viewBox="0 0 24 24" fill="none" xmlns="http://www.w3.org/2000/svg">
<g id="Calendar">
<path id="Vector" d="M8.78571 2.9375C8.78571 2.41797 8.30804 2 7.71429 2C7.12054 2 6.64286 2.41797 6.64286 2.9375V4.5H4.85714C3.28125 4.5 2 5.62109 2 7V7.625V9.5V19.5C2 20.8789 3.28125 22 4.85714 22H19.1429C20.7188 22 22 20.8789 22 19.5V9.5V7.625V7C22 5.62109 20.7188 4.5 19.1429 4.5H17.3571V2.9375C17.3571 2.41797 16.8795 2 16.2857 2C15.692 2 15.2143 2.41797 15.2143 2.9375V4.5H8.78571V2.9375ZM4.14286 9.5H7.71429V11.6875H4.14286V9.5ZM4.14286 13.5625H7.71429V16.0625H4.14286V13.5625ZM9.85714 13.5625H14.1429V16.0625H9.85714V13.5625ZM16.2857 13.5625H19.8571V16.0625H16.2857V13.5625ZM19.8571 11.6875H16.2857V9.5H19.8571V11.6875ZM19.8571 17.9375V19.5C19.8571 19.8438 19.5357 20.125 19.1429 20.125H16.2857V17.9375H19.8571ZM14.1429 17.9375V20.125H9.85714V17.9375H14.1429ZM7.71429 17.9375V20.125H4.85714C4.46429 20.125 4.14286 19.8438 4.14286 19.5V17.9375H7.71429ZM14.1429 11.6875H9.85714V9.5H14.1429V11.6875Z" fill="black"/>
</g>
</svg>
