<svg width="24" height="24" viewBox="0 0 24 24" fill="none" xmlns="http://www.w3.org/2000/svg">
<g id="Customer">
<path id="Vector" fill-rule="evenodd" clip-rule="evenodd" d="M7.6359 6.28571C7.6359 5.14907 8.09569 4.05898 8.91411 3.25526C9.73254 2.45153 10.8426 2 12 2C13.1574 2 14.2675 2.45153 15.0859 3.25526C15.9043 4.05898 16.3641 5.14907 16.3641 6.28571C16.3641 7.42235 15.9043 8.51244 15.0859 9.31617C14.2675 10.1199 13.1574 10.5714 12 10.5714C10.8426 10.5714 9.73254 10.1199 8.91411 9.31617C8.09569 8.51244 7.6359 7.42235 7.6359 6.28571ZM4.00012 19.719C4.03282 17.6566 4.89004 15.6896 6.38676 14.2424C7.88347 12.7953 9.89962 11.9842 12 11.9842C14.1004 11.9842 16.1165 12.7953 17.6132 14.2424C19.11 15.6896 19.9672 17.6566 19.9999 19.719C20.0024 19.8579 19.9637 19.9944 19.8884 20.112C19.8131 20.2295 19.7046 20.323 19.5761 20.3809C17.1993 21.4511 14.6147 22.0035 12 22C9.29814 22 6.73107 21.4209 4.42392 20.3809C4.29541 20.323 4.18688 20.2295 4.11161 20.112C4.03634 19.9944 3.99759 19.8579 4.00012 19.719Z" fill="black"/>
</g>
</svg>
