<svg width="24" height="24" viewBox="0 0 24 24" fill="none" xmlns="http://www.w3.org/2000/svg">
<g id="Document">
<path id="Vector" fill-rule="evenodd" clip-rule="evenodd" d="M5.81818 2C4.81358 2 4 2.8 4 3.78571V20.2143C4 21.2 4.81455 22 5.81818 22H18.1818C19.1855 22 20 21.2 20 20.2143V12.7143C20 11.7671 19.6169 10.8587 18.9349 10.1889C18.253 9.51913 17.3281 9.14286 16.3636 9.14286H14.5455C14.0632 9.14286 13.6008 8.95472 13.2598 8.61983C12.9188 8.28495 12.7273 7.83074 12.7273 7.35714V5.57143C12.7273 4.62423 12.3442 3.71582 11.6622 3.04605C10.9803 2.37627 10.0553 2 9.09091 2H5.81818ZM7.63636 14.8571C7.63636 14.6677 7.71299 14.486 7.84938 14.3521C7.98577 14.2181 8.17075 14.1429 8.36364 14.1429H15.6364C15.8292 14.1429 16.0142 14.2181 16.1506 14.3521C16.287 14.486 16.3636 14.6677 16.3636 14.8571C16.3636 15.0466 16.287 15.2283 16.1506 15.3622C16.0142 15.4962 15.8292 15.5714 15.6364 15.5714H8.36364C8.17075 15.5714 7.98577 15.4962 7.84938 15.3622C7.71299 15.2283 7.63636 15.0466 7.63636 14.8571ZM8.36364 17C8.17075 17 7.98577 17.0753 7.84938 17.2092C7.71299 17.3432 7.63636 17.5248 7.63636 17.7143C7.63636 17.9037 7.71299 18.0854 7.84938 18.2194C7.98577 18.3533 8.17075 18.4286 8.36364 18.4286H12C12.1929 18.4286 12.3779 18.3533 12.5143 18.2194C12.6506 18.0854 12.7273 17.9037 12.7273 17.7143C12.7273 17.5248 12.6506 17.3432 12.5143 17.2092C12.3779 17.0753 12.1929 17 12 17H8.36364Z" fill="#00005C"/>
<path id="Vector_2" d="M12.971 1.81599C13.7975 2.76896 14.2518 3.98854 14.25 5.24999V7.12499C14.25 7.33199 14.418 7.49999 14.625 7.49999H16.5C17.7615 7.49824 18.981 7.95248 19.934 8.77899C19.494 7.1057 18.6175 5.57929 17.3941 4.35588C16.1707 3.13247 14.6443 2.25596 12.971 1.81599Z" fill="#00005C"/>
</g>
</svg>
