<svg width="24" height="24" viewBox="0 0 24 24" fill="none" xmlns="http://www.w3.org/2000/svg">
<g id="house-solid 1">
<path id="Vector" d="M21.9948 11.9805C21.9948 12.6836 21.4739 13.2344 20.8836 13.2344H19.7723L19.7967 19.4922C19.7967 19.5977 19.7897 19.7031 19.7793 19.8086V20.4375C19.7793 21.3008 19.1577 22 18.3903 22H17.8347C17.7965 22 17.7583 22 17.7201 21.9961C17.6715 22 17.6229 22 17.5742 22H16.4457H15.6123C14.8448 22 14.2233 21.3008 14.2233 20.4375V19.5V17C14.2233 16.3086 13.7267 15.75 13.1121 15.75H10.8896C10.275 15.75 9.77844 16.3086 9.77844 17V19.5V20.4375C9.77844 21.3008 9.15686 22 8.38943 22H7.55603H6.4483C6.39621 22 6.34412 21.9961 6.29203 21.9922C6.25036 21.9961 6.20869 22 6.16702 22H5.61142C4.84399 22 4.22241 21.3008 4.22241 20.4375V16.0625C4.22241 16.0273 4.22241 15.9883 4.22588 15.9531V13.2344H3.11121C2.48615 13.2344 2 12.6875 2 11.9805C2 11.6289 2.10418 11.3164 2.34725 11.043L11.2508 2.3125C11.4939 2.03906 11.7717 2 12.0147 2C12.2578 2 12.5356 2.07812 12.744 2.27344L21.6128 11.043C21.8906 11.3164 22.0295 11.6289 21.9948 11.9805Z" fill="#00005C"/>
</g>
</svg>
