<svg width="24" height="24" viewBox="0 0 24 24" fill="none" xmlns="http://www.w3.org/2000/svg">
<path d="M2 8.82856V17.0001C2 17.7578 2.30102 18.4846 2.83684 19.0204C3.37266 19.5562 4.09938 19.8572 4.85714 19.8572H19.1429C19.9006 19.8572 20.6273 19.5562 21.1632 19.0204C21.699 18.4846 22 17.7578 22 17.0001V8.82856L13.4971 14.06C13.0469 14.337 12.5286 14.4837 12 14.4837C11.4714 14.4837 10.9531 14.337 10.5029 14.06L2 8.82856Z" fill="white"/>
<path d="M22 7.15042V6.99994C22 6.24217 21.699 5.51544 21.1632 4.97962C20.6273 4.44379 19.9006 4.14277 19.1429 4.14277H4.85714C4.09938 4.14277 3.37266 4.44379 2.83684 4.97962C2.30102 5.51544 2 6.24217 2 6.99994V7.15042L11.2514 12.8438C11.4766 12.9823 11.7357 13.0556 12 13.0556C12.2643 13.0556 12.5234 12.9823 12.7486 12.8438L22 7.15042Z" fill="white"/>
</svg>
