<svg width="24" height="24" viewBox="0 0 24 24" fill="none" xmlns="http://www.w3.org/2000/svg">
<g clip-path="url(#clip0_832_108)">
<path d="M18.6666 10.3333V8.66667C18.6666 6.89856 17.9642 5.20286 16.714 3.95262C15.4637 2.70238 13.768 2 11.9999 2C10.2318 2 8.53612 2.70238 7.28587 3.95262C6.03563 5.20286 5.33325 6.89856 5.33325 8.66667V10.3333C5.31279 10.8416 5.18775 11.3403 4.96594 11.7981C4.74413 12.2559 4.43031 12.6631 4.04409 12.9942C3.35008 13.5855 2.91541 14.4253 2.83325 15.3333C2.83325 17.4167 6.25992 18.6667 11.9999 18.6667C17.7399 18.6667 21.1666 17.4167 21.1666 15.3333C21.0844 14.4253 20.6498 13.5855 19.9558 12.9942C19.5695 12.6631 19.2557 12.2559 19.0339 11.7981C18.8121 11.3403 18.6871 10.8416 18.6666 10.3333Z" fill="white"/>
<path d="M9.62085 20.25C9.77968 20.7566 10.0961 21.1994 10.524 21.5137C10.952 21.828 11.4691 21.9975 12 21.9975C12.531 21.9975 13.0481 21.828 13.476 21.5137C13.9039 21.1994 14.2204 20.7566 14.3792 20.25C13.6342 20.305 12.8425 20.3333 12 20.3333C11.1575 20.3333 10.3658 20.3067 9.62085 20.25Z" fill="white"/>
</g>
<defs>
<clipPath id="clip0_832_108">
<rect width="20" height="20" fill="white" transform="translate(2 2)"/>
</clipPath>
</defs>
</svg>
