<svg width="24" height="24" viewBox="0 0 24 24" fill="none" xmlns="http://www.w3.org/2000/svg">
<g id="quickbooks-2 1" clip-path="url(#clip0_754_2364)">
<path id="Vector" d="M12 24C18.6274 24 24 18.6274 24 12C24 5.37262 18.6274 0 12 0C5.37262 0 0 5.37262 0 12C0 18.6274 5.37262 24 12 24Z" fill="#2CA01C"/>
<path id="Vector_2" d="M3.33338 12C3.33338 13.2377 3.82505 14.4247 4.70022 15.2998C5.57539 16.175 6.76238 16.6667 8.00007 16.6667H8.66663V14.9332H8.00007C7.61288 14.9363 7.22891 14.8627 6.87031 14.7167C6.5117 14.5707 6.18555 14.3551 5.91067 14.0824C5.63579 13.8097 5.41761 13.4853 5.26872 13.1279C5.11983 12.7705 5.04318 12.3871 5.04318 11.9999C5.04318 11.6127 5.11983 11.2293 5.26872 10.8719C5.41761 10.5145 5.63579 10.1901 5.91067 9.91736C6.18555 9.64467 6.5117 9.42909 6.87031 9.28307C7.22891 9.13704 7.61288 9.06345 8.00007 9.06655H9.6V18.1333C9.60015 18.593 9.7828 19.0337 10.1078 19.3588C10.4328 19.6838 10.8736 19.8665 11.3333 19.8667V7.3333H8.00007C7.38721 7.33327 6.78035 7.45396 6.21414 7.68847C5.64793 7.92299 5.13346 8.26673 4.7001 8.70007C4.26674 9.13342 3.92297 9.64788 3.68844 10.2141C3.4539 10.7803 3.33338 11.3871 3.33338 12ZM15.9999 7.3333H15.3334V9.06674H15.9999C16.7721 9.07547 17.5098 9.38835 18.0527 9.93749C18.5957 10.4866 18.9002 11.2277 18.9002 12C18.9002 12.7722 18.5957 13.5133 18.0527 14.0625C17.5098 14.6116 16.7721 14.9245 15.9999 14.9332H14.4V5.86686C14.4 5.63923 14.3552 5.41383 14.2681 5.20352C14.181 4.99321 14.0534 4.80211 13.8924 4.64115C13.7315 4.48018 13.5404 4.35249 13.3301 4.26538C13.1198 4.17826 12.8944 4.13342 12.6668 4.13342V16.6669H15.9999C17.2376 16.6669 18.4246 16.1752 19.2998 15.3C20.175 14.4248 20.6666 13.2379 20.6666 12.0002C20.6666 10.7625 20.175 9.5755 19.2998 8.70033C18.4246 7.82515 17.2376 7.3333 15.9999 7.3333Z" fill="white"/>
</g>
<defs>
<clipPath id="clip0_754_2364">
<rect width="24" height="24" fill="white"/>
</clipPath>
</defs>
</svg>
