<svg width="24" height="24" viewBox="0 0 24 24" fill="none" xmlns="http://www.w3.org/2000/svg">
<g id="Team">
<g id="Group 643">
<path id="Vector" fill-rule="evenodd" clip-rule="evenodd" d="M8.57143 6.92854C8.57143 5.88663 8.98533 4.88739 9.72208 4.15064C10.4588 3.4139 11.4581 3 12.5 3C13.5419 3 14.5411 3.4139 15.2779 4.15064C16.0146 4.88739 16.4285 5.88663 16.4285 6.92854C16.4285 7.97046 16.0146 8.9697 15.2779 9.70644C14.5411 10.4432 13.5419 10.8571 12.5 10.8571C11.4581 10.8571 10.4588 10.4432 9.72208 9.70644C8.98533 8.9697 8.57143 7.97046 8.57143 6.92854ZM16.4285 10.0714C16.4285 9.23784 16.7596 8.43845 17.349 7.84906C17.9384 7.25966 18.7378 6.92854 19.5713 6.92854C20.4049 6.92854 21.2043 7.25966 21.7937 7.84906C22.3831 8.43845 22.7142 9.23784 22.7142 10.0714C22.7142 10.9049 22.3831 11.7043 21.7937 12.2937C21.2043 12.8831 20.4049 13.2142 19.5713 13.2142C18.7378 13.2142 17.9384 12.8831 17.349 12.2937C16.7596 11.7043 16.4285 10.9049 16.4285 10.0714ZM2.28577 10.0714C2.28577 9.23784 2.61689 8.43845 3.20628 7.84906C3.79568 7.25966 4.59507 6.92854 5.4286 6.92854C6.26213 6.92854 7.06152 7.25966 7.65092 7.84906C8.24031 8.43845 8.57143 9.23784 8.57143 10.0714C8.57143 10.9049 8.24031 11.7043 7.65092 12.2937C7.06152 12.8831 6.26213 13.2142 5.4286 13.2142C4.59507 13.2142 3.79568 12.8831 3.20628 12.2937C2.61689 11.7043 2.28577 10.9049 2.28577 10.0714ZM6.53907 15.6939C7.17806 14.6924 8.05923 13.8682 9.10113 13.2974C10.143 12.7267 11.312 12.4278 12.5 12.4285C13.495 12.4276 14.479 12.6368 15.3876 13.0426C16.2962 13.4483 17.1088 14.0413 17.7723 14.7829C18.4358 15.5244 18.9352 16.3977 19.2379 17.3456C19.5405 18.2935 19.6395 19.2947 19.5284 20.2835C19.5148 20.4063 19.4724 20.5242 19.4047 20.6276C19.337 20.731 19.2459 20.817 19.1387 20.8785C17.1184 22.0377 14.8292 22.6461 12.5 22.6427C10.0852 22.6427 7.81715 22.0016 5.86126 20.8785C5.75408 20.817 5.66293 20.731 5.59522 20.6276C5.5275 20.5242 5.48513 20.4063 5.47155 20.2835C5.29561 18.6771 5.67213 17.0587 6.53907 15.695V15.6939Z" fill="black"/>
<path id="Vector_2" d="M5.25251 14.7898C4.2193 16.3846 3.73793 18.2744 3.88223 20.1692C3.25315 20.0739 2.63443 19.9195 2.03424 19.7083L1.91377 19.6664C1.80628 19.6282 1.71216 19.5597 1.6428 19.4692C1.57345 19.3786 1.53184 19.2699 1.52301 19.1562L1.51253 19.0294C1.47022 18.5035 1.53428 17.9744 1.7009 17.4738C1.86752 16.9732 2.13328 16.5112 2.48233 16.1155C2.83138 15.7198 3.25656 15.3985 3.7325 15.1707C4.20845 14.943 4.72539 14.8134 5.25251 14.7898ZM21.1175 20.1692C21.2618 18.2744 20.7805 16.3846 19.7472 14.7898C20.2744 14.8134 20.7913 14.943 21.2673 15.1707C21.7432 15.3985 22.1684 15.7198 22.5174 16.1155C22.8665 16.5112 23.1322 16.9732 23.2989 17.4738C23.4655 17.9744 23.5295 18.5035 23.4872 19.0294L23.4767 19.1562C23.4677 19.2697 23.426 19.3782 23.3567 19.4686C23.2873 19.5589 23.1933 19.6273 23.086 19.6653L22.9655 19.7073C22.3715 19.9168 21.7545 20.0729 21.1175 20.1692Z" fill="#00005C"/>
</g>
</g>
</svg>
