<svg width="11" height="15" viewBox="0 0 11 15" fill="none" xmlns="http://www.w3.org/2000/svg">
<path d="M5.06032 9.49862C6.25642 9.49862 7.21475 8.53309 7.21475 7.33698L7.22196 3.01369C7.22196 1.81758 6.25642 0.852047 5.06032 0.852047C3.86421 0.852047 2.89867 1.81758 2.89867 3.01369V7.33698C2.89867 8.53309 3.86421 9.49862 5.06032 9.49862ZM8.87922 7.33698C8.87922 9.49862 7.04903 11.0118 5.06032 11.0118C3.0716 11.0118 1.24141 9.49862 1.24141 7.33698H0.0164795C0.0164795 9.79405 1.97637 11.826 4.33977 12.1791V14.5425H5.78086V12.1791C8.14426 11.8332 10.1042 9.80125 10.1042 7.33698H8.87922Z" fill="#73717F"/>
</svg>
