<svg width="24" height="24" viewBox="0 0 24 24" fill="none" xmlns="http://www.w3.org/2000/svg">
<g id="Video">
<g id="Group 644">
<path id="Polygon 1" d="M15.7105 11.2392C16.3772 11.6241 16.3772 12.5864 15.7105 12.9713L10.0263 16.2531C9.35964 16.638 8.5263 16.1568 8.5263 15.387L8.5263 8.82349C8.5263 8.05369 9.35963 7.57256 10.0263 7.95746L15.7105 11.2392Z" fill="#00005C"/>
<path id="Rectangle 1 (Stroke)" fill-rule="evenodd" clip-rule="evenodd" d="M20.6842 6.31579H3.31579L3.31579 17.8947H20.6842V6.31579ZM3.31579 4C2.03681 4 1 5.03681 1 6.31579V17.8947C1 19.1737 2.03681 20.2105 3.31579 20.2105H20.6842C21.9632 20.2105 23 19.1737 23 17.8947V6.31579C23 5.03681 21.9632 4 20.6842 4H3.31579Z" fill="#00005C"/>
</g>
</g>
</svg>
